<?xml version="1.0" standalone="no"?>
<!DOCTYPE svg PUBLIC "-//W3C//DTD SVG 20010904//EN"
 "http://www.w3.org/TR/2001/REC-SVG-20010904/DTD/svg10.dtd">
<svg version="1.0" xmlns="http://www.w3.org/2000/svg"
 width="402.000000pt" height="402.000000pt" viewBox="0 0 402.000000 402.000000"
 preserveAspectRatio="xMidYMid meet">
<metadata>
Created by potrace 1.14, written by Peter Selinger 2001-2017
</metadata>
<g transform="translate(0.000000,402.000000) scale(0.100000,-0.100000)"
fill="#000000" stroke="none">
<path d="M1225 3732 c-3 -3 -15 -7 -27 -9 -25 -4 -130 -62 -140 -78 -3 -6 -20
-26 -37 -45 -42 -48 -65 -140 -58 -228 10 -125 96 -253 191 -283 22 -7 46 -15
51 -18 6 -3 17 -4 25 -3 11 2 22 -20 39 -75 13 -43 28 -82 33 -88 14 -16 9
-24 -23 -40 -16 -9 -38 -24 -48 -33 -9 -9 -33 -31 -52 -48 -44 -40 -108 -111
-137 -152 -55 -77 -71 -105 -67 -112 9 -14 -20 -17 -60 -6 -29 8 -44 20 -56
43 -52 104 -123 148 -239 148 -64 0 -82 -4 -122 -28 -68 -41 -107 -85 -123
-141 -19 -63 -19 -95 0 -161 20 -66 82 -136 145 -161 73 -30 155 -25 227 13
59 31 103 35 103 9 0 -6 -8 -40 -17 -76 -11 -45 -16 -112 -16 -222 l-1 -157
-31 -11 c-16 -6 -42 -17 -57 -25 -23 -11 -29 -11 -45 3 -72 64 -196 77 -293
31 -194 -94 -238 -326 -91 -487 61 -66 121 -91 218 -88 37 1 78 5 90 8 76 22
180 134 197 213 5 23 16 34 46 47 36 15 42 15 55 2 8 -9 15 -19 15 -24 0 -5
11 -21 24 -37 13 -15 39 -58 59 -95 20 -36 44 -77 54 -90 28 -35 143 -149 191
-188 24 -19 50 -41 58 -48 7 -7 55 -35 105 -61 l90 -48 -30 -13 c-40 -16 -109
-93 -134 -149 -42 -95 -3 -265 75 -324 68 -52 117 -70 187 -71 36 -1 75 3 86
8 11 5 29 11 40 13 44 8 114 72 146 133 33 64 34 188 2 243 -13 21 -23 40 -23
41 0 2 64 6 143 9 87 3 159 11 187 20 114 38 182 58 185 55 1 -1 19 -34 40
-73 20 -38 46 -80 58 -92 18 -20 19 -26 8 -50 -7 -15 -12 -57 -12 -92 1 -121
94 -260 198 -293 107 -36 230 -5 308 77 70 72 88 121 83 218 -6 98 -31 150
-99 199 -53 39 -99 58 -161 67 -53 7 -64 18 -122 123 -32 57 -36 70 -24 83 7
8 18 20 24 27 6 7 21 20 34 28 62 42 169 162 205 233 11 20 23 37 28 37 4 0 5
4 2 10 -7 11 39 24 59 17 8 -3 23 -25 34 -49 68 -150 249 -207 403 -126 68 36
89 56 125 123 37 70 42 137 16 221 -23 75 -81 148 -127 160 -14 3 -25 10 -25
14 0 21 -141 34 -198 18 -18 -5 -55 -22 -82 -38 -26 -16 -51 -26 -54 -22 -6 5
1 94 10 142 1 8 3 54 3 102 l1 87 127 3 c139 3 143 5 129 64 -6 24 -7 24 -135
24 l-128 0 -6 53 c-3 28 -8 61 -11 72 -12 47 -44 151 -50 166 -5 12 5 23 41
44 26 15 62 36 79 46 31 19 32 19 78 -6 119 -63 260 -72 368 -23 68 32 151
113 193 189 26 47 30 66 33 154 l4 100 -42 80 c-23 44 -58 96 -78 115 -43 40
-113 90 -129 90 -5 0 -25 8 -44 17 -25 13 -59 17 -129 17 -85 0 -102 -4 -162
-31 -69 -32 -168 -119 -168 -147 0 -9 -4 -16 -8 -16 -12 0 -52 -119 -55 -165
-2 -42 -13 -53 -125 -115 l-42 -24 -46 52 c-26 29 -83 79 -128 112 -44 33 -87
65 -94 71 -7 5 -25 15 -41 22 l-28 12 22 69 c20 62 27 71 66 94 24 14 55 38
68 55 30 36 53 145 41 188 -11 36 -46 96 -74 125 -47 49 -143 67 -217 41 -39
-14 -119 -83 -119 -104 0 -7 -4 -13 -9 -13 -19 0 -29 -95 -17 -156 2 -12 14
-41 26 -65 19 -37 21 -48 11 -74 -6 -17 -11 -39 -11 -48 0 -27 -16 -28 -102
-11 -99 21 -323 23 -413 5 -33 -7 -73 -15 -89 -18 -16 -2 -40 -9 -54 -14 -14
-5 -26 -8 -27 -7 -1 2 -12 32 -24 67 -22 64 -22 65 -2 91 30 41 62 158 59 215
-9 184 -155 323 -339 323 -37 0 -70 -3 -74 -6z"/>
</g>
</svg>
